<svg width="100" height="29" viewBox="0 0 100 29" fill="none" xmlns="http://www.w3.org/2000/svg">
<path d="M0 0.371603L6.35 0.350941L12.0629 11.7345L17.8169 0.371603L24.1669 0.350941L15.0015 17.2406L14.981 28.0674L9.12423 28.0467L9.18587 17.4469L0 0.371603Z" fill="#4A3AFF"/>
<path d="M45.3128 22.3133L39.4767 18.1476L33.8048 22.1896L36.0243 15.508L30.3113 11.3835L37.2983 11.301L39.5177 4.49563L41.6961 11.301L48.7242 11.3835L43.1346 15.508L45.3128 22.3133ZM52.7521 14.3118C52.6209 3.17631 46.0054 0 39.5588 0C33.1123 0 26.3213 2.84569 26.3658 14.3944C26.4068 25.0767 33.1123 28.5 39.5588 28.5C46.0054 28.5 52.8753 24.788 52.7521 14.3118Z" fill="#4A3AFF"/>
<path d="M80.6588 0.288507L74.1004 0.268583L64.2189 12.8127V0.371027H58.3828V28.0873H64.2189V18.265L66.7196 16.4497L73.9616 28.105L80.6588 28.0873L70.9332 12.6211L80.6588 0.288507Z" fill="#4A3AFF"/>
<path d="M100 5.16947V0.347332H87.5264V0.348406H84.0802V28.0649H87.5123V28.0723H99.9866V23.2501H89.9162V16.0426H99.3286V11.2204H89.9162V5.16947H100Z" fill="#4A3AFF"/>
</svg>
